<svg xmlns="http://www.w3.org/2000/svg" width="480" height="480" viewBox="0 0 48 48">
  <path d="M48 25V9.5C48 4.3 43.7 0 38.5 0H9.5C4.3 0 0.1 4.2 0 9.3V38.7C0.1 43.8 4.3 48 9.5 48H38.4C43.5 48 47.6 44 47.9 39.1L48 25Z" fill="#4264A6"/>
  <path d="M48 21.9L0 32.7V38.8C0.1 43.8 4.3 48 9.5 48H38.4C43.5 48 47.6 44 47.9 39.1V21.9H48Z" fill="#39B1E6"/>
  <path d="M24.1 7.80005C17.5 7.80005 12.1 13.2 12.1 19.8C12.1 22.2 12.8 24.5 14.1 26.4L22.5 39.3C22.9 39.8 23.4 40.2001 24.1 40.2001C24.8 40.2001 25.4 39.8 25.7 39.3L34 26.4C35.2 24.5 36 22.2 36 19.8C36 13.1 30.7 7.80005 24.1 7.80005Z" fill="white"/>
  <path d="M24 24.9C26.8719 24.9 29.2001 22.5719 29.2001 19.7C29.2001 16.8281 26.8719 14.5 24 14.5C21.1282 14.5 18.8 16.8281 18.8 19.7C18.8 22.5719 21.1282 24.9 24 24.9Z" fill="#4264A6"/>
  <path d="M48 23.8L0 34.6V30.7L48 19.9V23.8Z" fill="white"/>
</svg>
