<svg xmlns="http://www.w3.org/2000/svg" viewBox="69.7 269.9 78.7 78.6">
  <path d="M148.3 310.9v-25.4c0-8.6-7-15.6-15.6-15.6H85.3c-8.5 0-15.4 6.8-15.6 15.3v48.1c.2 8.4 7.1 15.2 15.6 15.2h47.3c8.3 0 15-6.5 15.6-14.6h.1v-23z" style="fill: #4264a6"></path>
  <path d="m148.3 305.8-78.5 17.6v9.9c.2 8.4 7.1 15.2 15.6 15.2h47.3c8.3 0 15-6.5 15.6-14.6h.1v-28.1z" style="fill: #39b1e6"></path>
  <ellipse cx="109" cy="314.3" rx="16.6" ry="13.8" style="fill: none"></ellipse>
  <circle cx="134" cy="284.5" r="6.5" style="fill: #fff"></circle>
  <circle cx="134" cy="284.5" r="2.9" style="fill: #4264a6"></circle>
  <path d="m71.3 322.8 75.7-17" style="fill: none; stroke: #fff; stroke-width: 2; stroke-linecap: round; stroke-miterlimit: 10"></path>
  <path d="M92.9 322.3c5.8 5.5 17.4 6.7 26.1 2.3s11.5-13.5 5.5-18.2c-5.9-4.6-16.8-7-25.5-2.6s-11.6 13.2-6.1 18.5z" style="fill: #fff"></path>
  <path d="M108.9 292.5c-10.8 0-19.6 8.8-19.6 19.6 0 4 1.2 7.7 3.2 10.8l13.7 21.1c.6.9 1.5 1.5 2.6 1.5s2.1-.6 2.6-1.5l13.7-21.1c2-3.1 3.2-6.8 3.2-10.8.2-10.8-8.6-19.6-19.4-19.6z" style="fill: #fff"></path>
</svg>
