<svg xmlns="http://www.w3.org/2000/svg" viewBox="17 17 80 80">
  <path d="M96.6 57.2V31.8c0-8.6-7-15.6-15.6-15.6H33.7c-8.5 0-15.4 6.8-15.6 15.3V79.6c.2 8.4 7.1 15.2 15.6 15.2H81c8.3 0 15-6.5 15.6-14.6h.1V60.4l-.1-3.2z" style="fill: #4264a6" />
  <path d="M96.6 52.1 18.1 69.7v9.9c.2 8.4 7.1 15.2 15.6 15.2H81c8.3 0 15-6.5 15.6-14.6h.1V57.3l-.1-5.2z" style="fill: #39b1e6" />
  <path d="M57.5 29c-10.8 0-19.6 8.8-19.6 19.6 0 4 1.2 7.7 3.2 10.8l13.7 21.1c.6.9 1.5 1.5 2.6 1.5s2.1-.6 2.6-1.5l13.7-21.1c2-3.1 3.2-6.8 3.2-10.8C77 37.7 68.3 29 57.5 29z" style="fill: #fff" />
  <path d="m19.5 68.7 75.7-17" style="fill: none; stroke: #fff; stroke-width: 4; stroke-linecap: round; stroke-miterlimit: 10" />
  <circle cx="57.4" cy="48.4" r="8.5" style="fill: #4264a6" />
</svg>
