<?xml version="1.0" standalone="no"?>
<!DOCTYPE svg PUBLIC "-//W3C//DTD SVG 20010904//EN"
 "http://www.w3.org/TR/2001/REC-SVG-20010904/DTD/svg10.dtd">
<svg version="1.0" xmlns="http://www.w3.org/2000/svg"
 width="48.000000pt" height="48.000000pt" viewBox="0 0 48.000000 48.000000"
 preserveAspectRatio="xMidYMid meet">

<g transform="translate(0.000000,48.000000) scale(0.100000,-0.100000)"
fill="#000000" stroke="none">
<path d="M214 355 c-4 -9 -2 -21 4 -27 16 -16 47 -5 47 17 0 26 -42 34 -51 10z"/>
<path d="M210 207 l0 -84 30 5 30 4 0 79 0 79 -30 0 -30 0 0 -83z"/>
<path d="M215 60 c-167 -7 -144 -25 32 -25 103 0 125 3 140 18 16 16 16 17
-12 15 -17 -1 -88 -5 -160 -8z"/>
</g>
</svg>
