<svg width="100" height="28" viewBox="0 0 100 28" fill="none" xmlns="http://www.w3.org/2000/svg">
  <path fill-rule="evenodd" clip-rule="evenodd" d="M1.01 4.411c.195-.493.5-.772.899-.973.405-.095.704-.194.908-.194.3 0 .61.096.906.194.404.204.704.484.8.878.203.3.299.589.299.878v.395c-.194.79-.695 1.378-1.504 1.582-.205 0-.405.095-.5.095a1.66 1.66 0 0 1-1.004-.3c-.405-.193-.705-.493-.8-.887C.81 5.789.81 5.5.81 5.296c0-.3 0-.599.204-.888zm1.004 17.96C.81 20.904.201 18.743 0 15.899v-.983c0-1.178.105-2.161.51-2.74.194-.493.5-.79.899-.983.405-.105.704-.204 1.003-.204.205 0 .405 0 .61.095.8.204 1.303.793 1.609 1.776 0 .29.095.674.095 1.167 0 .494 0 .984-.095 1.572-.105 1.178-.204 2.171-.204 2.845v.095c0 .684.095 1.178.3 1.572.203.395.404.589.5.589h.299c.31 0 .609-.194.908-.589.405-.588.906-1.86 1.504-4.011.106-.405.205-.695.31-.889.095-.204.095-.394.194-.49 0-.105.105-.204.105-.31.205-.183.405-.288.705-.288s.5.204.599.493c.105.106.105.3.105.493v.3c-.105.384-.204.878-.405 1.572-.3 1.272-.599 2.246-.704 2.943q-.307 1.027-.599 1.477c-.105.395-.31.684-.5.973-.81 1.079-1.719 1.572-2.719 1.572h-.204c-1.004 0-2.008-.599-2.807-1.572zm15.166.935c-1.603-.394-2.902-1.766-3.8-4.31-.501-1.484-.906-3.444-1.11-6 0-.483 0-.878-.095-1.061 0-.204-.106-.395-.106-.5a.73.73 0 0 0-.395-.385c-.105-.204-.404-.3-.704-.395-.405-.095-.704-.3-.908-.588 0-.106-.106-.204-.106-.395 0-.095.106-.204.106-.3.204-.299.5-.483 1.003-.683.504-.201.8-.395 1.004-.684.204-.194.3-.684.405-1.467.204-1.283.704-2.17 1.409-2.47.3-.194.704-.194 1.004-.194.493 0 .993.194 1.493.599.204.289.405.578.61.888.095.29.299.782.394 1.272.106.59.204.889.3 1.082.2.184.51.375.905.484.105.095.31.095.405.095.095.105.204.105.299.194.105.095.204.204.204.3q.096.105.095.193c0 .096 0 .204-.095.3-.095.095-.204.194-.3.3-.105.094-.299.094-.608.193-.395.194-.705.3-.905.483-.194.204-.3.5-.395.888-.106.494-.106 1.283-.204 2.256v3.54c0 .972.095 1.66.204 2.065.095.483.204.782.395.973.105.095.2.204.2.204.106 0 .204.095.31.095h.095c.095 0 .204 0 .204-.095.205 0 .3-.106.405-.3.194-.095.395-.493.6-1.082.203-.493.608-1.378 1.003-2.65.204-.494.3-.984.5-1.273.106-.29.204-.493.204-.684.106-.095.205-.204.205-.3.204-.289.5-.394.704-.394s.405.105.5.395c.095.095.095.3.095.394 0 .3 0 .59-.095.878-.704 2.654-1.303 4.621-1.814 5.604-.5 1.08-1.003 1.766-1.602 2.15a2.94 2.94 0 0 1-1.514.396h-.5zm6.53-18.893c.3-.493.598-.772 1.003-.973.3-.095.61-.194.909-.194s.5.095.8.194c.404.204.704.483.905.878.204.3.3.589.3.878 0 .105 0 .31-.096.395-.106.789-.61 1.378-1.504 1.582-.106 0-.31.095-.51.095-.3 0-.6-.095-.899-.3-.5-.193-.81-.493-.908-.888-.096-.289-.204-.578-.204-.782 0-.3.105-.599.204-.888zm1.003 17.96c-1.099-1.467-1.803-3.628-1.908-6.473-.096-.299-.096-.683-.096-.983 0-1.177.204-2.16.5-2.739.3-.493.6-.79 1.004-.983.3-.106.705-.204.909-.204s.5 0 .704.095c.8.204 1.303.793 1.504 1.776.095.29.095.674.095 1.167v1.572c-.194 1.177-.194 2.171-.194 2.845v.095c0 .684.096 1.177.194 1.572q.304.59.61.589h.193c.395 0 .6-.194.899-.589.405-.589.905-1.861 1.599-4.012.105-.405.204-.694.204-.888.095-.204.204-.394.204-.49.096-.105.096-.204.204-.31.194-.183.395-.289.6-.289h.105c.194 0 .394.204.599.494v.79c0 .384-.096.877-.3 1.571-.3 1.273-.609 2.246-.81 2.944-.194.683-.394 1.177-.5 1.476a7 7 0 0 1-.599.973c-.8 1.079-1.698 1.572-2.691 1.572h-.106c-1.099 0-2.007-.598-2.912-1.572zm11.236-2.301c-.8-.194-1.504-1.272-2.113-3.134-.694-1.966-1.1-3.926-1.1-5.787 0-.205-.094-.395-.094-.6 0-1.367.299-2.245.898-2.834.3-.3.704-.588 1.313-.694h.3c.599 0 1.204.29 1.708.79.405.299.599.877.8 1.667.105.384.204.578.204.782q.157.29.3.29h.105c.095 0 .299 0 .394-.096.106-.194.405-.493.705-.973.5-.79 1.014-1.283 1.408-1.667.5-.194.909-.3 1.314-.3.3 0 .599.106 1.003.3.6.384 1.1 1.079 1.304 1.861.105.385.204.783.3 1.273 0 .394.105 1.078.203 1.871 0 .684.106 1.378.204 1.95 0 .599.106.983.106 1.187.095.395.3.59.395.684h.289c.204 0 .405-.095.51-.394.194-.096.3-.385.395-.684.106-.385.3-.984.5-1.756l.31-.983c.095-.29.194-.6.3-.888.095-.29.095-.395.095-.494.105-.194.299-.49.404-.599.205-.183.405-.289.5-.289.5 0 .705.29.705.793v.095c0 .395-.204 1.477-.704 3.243-.3.973-.5 1.766-.705 2.355-.204.588-.5 1.078-.704 1.476-.599.878-1.303 1.263-2.103 1.263h-.3c-1.003-.184-1.803-1.062-2.613-2.355-.204-.483-.394-1.072-.598-1.667-.106-.579-.31-1.457-.405-2.44 0-.599-.096-.888-.204-1.188 0-.194-.096-.289-.205-.394-.095-.089-.194-.194-.394-.194-.201 0-.5.3-.81.79-.6 1.176-1.205 3.038-1.899 5.583-.105.31-.204.599-.31.8 0 .289-.095.483-.095.568-.204.31-.405.599-.704.79h-.405a.3.3 0 0 1-.204.095c-.096 0-.194-.096-.3-.096zM50.618 4.411c.31-.493.609-.772 1.014-.973.395-.095.704-.194.898-.194.31 0 .61.096.81.194.395.204.704.484.898.878.204.3.31.589.31.878 0 .106 0 .31-.106.395-.095.79-.599 1.378-1.408 1.582-.194 0-.395.095-.6.095-.299 0-.608-.095-.908-.3-.5-.193-.704-.493-.908-.887-.096-.29-.194-.579-.194-.783 0-.3.095-.599.194-.888zm1.109 17.96c-1.204-1.467-1.803-3.628-2.008-6.472 0-.3-.105-.684-.105-.983 0-1.178.204-2.161.5-2.74.31-.493.61-.79 1.014-.983.3-.105.694-.204.898-.204.31 0 .5 0 .705.095.8.204 1.313.793 1.504 1.776.105.29.105.674.105 1.167V15.6c-.204 1.178-.204 2.171-.204 2.845v.095a5.7 5.7 0 0 0 .204 1.572c.204.395.395.589.6.589h.309c.3 0 .599-.194.8-.589.394-.588.898-1.86 1.602-4.011.095-.405.194-.695.3-.889 0-.204.095-.394.095-.49.105-.105.105-.204.204-.31.204-.183.405-.288.609-.288h.095c.204 0 .405.204.61.493 0 .106.095.3.095.493 0 .106-.096.194-.096.3 0 .384-.105.878-.31 1.572-.299 1.272-.598 2.246-.799 2.943-.204.684-.405 1.178-.5 1.477a8 8 0 0 1-.61.973c-.799 1.079-1.697 1.572-2.7 1.572h-.096c-1.11 0-2.015-.599-2.818-1.572zM68.2 27.078c-.5-.095-1.005-.3-1.41-.588-.404-.194-.609-.6-.609-.888 0-.096 0-.28.106-.385.095-.095.204-.194.3-.29.095 0 .2-.095.404-.095h.705c.5 0 .898-.105 1.204-.204.204-.088.5-.289.8-.684.8-.694 1.409-1.966 1.708-3.627.105-.3.105-.684.204-1.078.095-.405.095-.695.095-.889 0-.694-.194-.983-.598-.983-.106 0-.205 0-.3.106-.2.088-.31.183-.5.483-.704.694-1.31 1.283-1.814 1.677-.5.385-1.109.579-1.61.783-.299.095-.598.095-.898.095h-.404c-.405 0-.705 0-1.004-.095-.81-.204-1.603-.694-2.402-1.378-1.31-1.378-2.114-3.24-2.518-5.594v-2.845c.404-2.844 1.313-5.199 2.817-7.166C64.079 1.483 65.783.395 67.791 0h1.11c.394 0 .704.105 1.003.105.204.096.5.205.8.29.299.204.605.3.81.493a5.6 5.6 0 0 1 1.708 1.96c.095.3.194.5.299.79v.888c0 .493 0 .782-.106 1.082 0 .194-.095.483-.299.588-.095.095-.204.184-.204.184-.095 0-.194.105-.3.105h-.095c-.204 0-.31-.105-.405-.194-.204-.204-.3-.493-.405-.888-.095-.289-.194-.588-.299-.782-.095-.204-.3-.395-.405-.494-.5-.394-1.004-.598-1.504-.598-.3 0-.704.105-1.099.204-.81.394-1.61 1.177-2.314 2.266-.704 1.061-1.204 2.249-1.504 3.617-.3 1.187-.5 2.065-.5 2.845v1.378c0 .888 0 1.572.204 2.15.194.983.694 1.572 1.303 1.967.3.095.6.194.906.194.5 0 1.099-.29 1.708-.783.908-.783 1.708-2.15 2.507-4.022a9 9 0 0 1 .81-1.477c.194-.194.395-.394.6-.493.2-.095.404-.095.608-.095.395 0 .8.194 1.205.493a4.95 4.95 0 0 1 1.303 2.171c.3.677.405 1.361.405 2.045.095.599.095 1.079.095 1.283 0 .782-.095 1.562-.204 2.365-.3 1.755-1.004 3.222-1.909 4.505-.898 1.368-2.008 2.246-3.307 2.75a4.3 4.3 0 0 1-1.514.299c-.201 0-.395-.106-.6-.106zm18.18-4.995c.905-.2 1.718-.983 2.307-2.16.704-1.188 1.204-2.546 1.504-4.312v-.694c.105-.194.105-.395.105-.588 0-.195 0-.395-.105-.59 0-1.66-.3-3.038-1.004-4.31-.6-1.079-1.399-1.862-2.403-2.556-1.003-.684-2.007-.973-3.212-.973-.2 0-.5 0-.704.085-.204 0-.405.095-.704.204-1.004.385-1.804 1.273-2.498 2.654-.31.59-.51 1.08-.51 1.467-.096.395-.096.684-.096.79 0 .183 0 .384.096.493h.204c0-.106.105-.106.2-.31.106-.088.205-.184.3-.384.2-.29.405-.589.5-.79.201-.095.405-.289.51-.384.385-.29.79-.395 1.09-.395.299 0 .5.105.8.194.608.3 1.013.79 1.204 1.477v.888c0 .588 0 1.272-.194 2.055-.106.694-.106 1.079-.106 1.283v.289c0 .3 0 .493.106.589.095.3.395.493.8.493h.299c.105-.088.204-.088.405-.194.204 0 .394-.095.8-.204.299-.095.5-.194.704-.194.204-.095.3-.095.405-.194h.299c.2 0 .405 0 .5.095.106 0 .194.096.29.194.105.204.204.405.204.494 0 .394-.3.694-.79.983-.405.29-1.11.599-2.113.973-.204 0-.405.106-.599.194-.105 0-.31.106-.31.106-.598.299-.898.684-.898 1.187 0 .184.096.483.194.878.5.79 1.205 1.177 2.015 1.177h.394zm-1.913 2.75c-1.197-.3-2.208-.984-3.212-2.151-.3-.405-.588-.8-.79-1.187-.299-.395-.503-.984-.799-1.573 0-.204-.105-.394-.204-.694a1.2 1.2 0 0 0-.31-.384c0-.106-.194-.3-.3-.494-.203-.183-.394-.384-.598-.578-.405-.395-.81-.694-1.004-.983-.204-.29-.405-.695-.609-1.09-.599-1.177-.905-2.643-.905-4.31 0-2.267.61-4.312 1.909-5.989.204-.3.5-.684 1.004-1.082.405-.385.81-.772 1.109-.973 1.11-.684 2.402-1.079 3.706-1.079.609 0 1.204.106 1.813.29 2.307.598 4.11 1.86 5.41 3.838q.302.435.61 1.177c.2.384.404.782.598 1.177.5 1.66.81 3.338.81 5.094 0 1.283-.204 2.66-.5 4.022-.106.405-.204.878-.405 1.177-.095.395-.3.79-.5 1.177-.3.695-.61 1.178-.909 1.668-.405.5-.8.888-1.303 1.368-.905.888-1.899 1.378-2.902 1.582-.201 0-.405.088-.61.088h-.299c-.3 0-.606-.088-.81-.088z" fill="#141414"/>
</svg>
