<svg width="50" height="50" viewBox="0 0 50 50" fill="none" xmlns="http://www.w3.org/2000/svg">
<rect width="50" height="50" rx="5" fill="#00A0E4" fill-opacity="0.45"/>
<g clip-path="url(#clip0_3009_90)">
<path d="M17.05 10C14.83 10 13 11.83 13 14.05V38.36C13 39.11 13.6 39.71 14.35 39.71H38.66C39.41 39.71 40.01 39.11 40.01 38.36V14.05C40.01 11.83 38.18 10 35.96 10H17.05ZM17.05 12.7H35.96C36.72 12.7 37.31 13.29 37.31 14.05V15.4H15.7V14.05C15.7 13.29 16.29 12.7 17.05 12.7ZM15.7 18.1H37.31V26.2H15.7V18.1ZM15.7 28.91H37.31V37.01H15.7V28.91ZM19.76 30.94C18.64 30.94 17.73 31.85 17.73 32.97C17.73 33.51 17.94 34.02 18.32 34.4C18.7 34.78 19.22 34.99 19.75 34.99C20.28 34.99 20.8 34.78 21.18 34.4C21.56 34.02 21.77 33.5 21.77 32.97C21.77 31.85 20.86 30.94 19.74 30.94H19.76ZM33.27 30.94C32.15 30.94 31.24 31.85 31.24 32.97C31.24 33.51 31.45 34.02 31.83 34.4C32.21 34.78 32.73 34.99 33.26 34.99C33.79 34.99 34.31 34.78 34.69 34.4C35.07 34.02 35.28 33.5 35.28 32.97C35.28 31.85 34.37 30.94 33.25 30.94H33.27Z" fill="#333333"/>
</g>
<defs>
<clipPath id="clip0_3009_90">
<rect width="27.01" height="29.72" fill="white" transform="translate(13 10)"/>
</clipPath>
</defs>
</svg>
