<svg width="50" height="50" viewBox="0 0 50 50" fill="none" xmlns="http://www.w3.org/2000/svg">
<rect width="50" height="50" rx="5" fill="#00A0E4" fill-opacity="0.45"/>
<g clip-path="url(#clip0_3009_60)">
<path d="M11.5 32.64L37.26 39.98" stroke="#333333" stroke-width="3" stroke-miterlimit="10" stroke-linecap="round"/>
<path d="M32.9501 14.54C32.9501 13.76 32.8301 13 32.6101 12.3C31.7001 9.24 28.8701 7 25.5101 7C22.1501 7 19.3401 9.21 18.4201 12.26C18.1901 12.98 18.0601 13.74 18.0601 14.53C18.0601 18.12 20.6101 21.17 24.0901 21.84V36.06H24.5401V37.8H26.8101V36.06H26.9201V21.9C30.5601 21.37 32.9401 18.24 32.9501 14.54ZM25.5001 19.52C22.6801 19.52 20.4001 17.24 20.4001 14.42C20.4001 11.6 22.6801 9.32 25.5001 9.32C28.3201 9.32 30.6001 11.6 30.6001 14.42C30.6001 17.24 28.3201 19.52 25.5001 19.52Z" fill="#333333"/>
</g>
<defs>
<clipPath id="clip0_3009_60">
<rect width="28.76" height="34.48" fill="white" transform="translate(10 7)"/>
</clipPath>
</defs>
</svg>
