<svg width="47" height="36" viewBox="0 0 47 36" fill="none" xmlns="http://www.w3.org/2000/svg">
<path d="M4.89783 35.9711C3.90981 35.8498 3.0242 35.5439 2.22897 35.0474C1.96389 34.88 1.40361 34.4239 1.19877 34.2045C0.626442 33.5984 0.246897 32.8768 0.0661616 32.0686L0.00591638 31.8145V21.6542C-0.000108148 12.302 -0.000108148 11.4765 0.036039 11.2398C0.162554 10.4374 0.536074 9.66958 1.12045 9.01146C1.37348 8.72859 1.92774 8.26098 2.24101 8.07048C2.90371 7.6606 3.63268 7.37772 4.39779 7.2334C4.93398 7.12949 5.12074 7.12372 6.77146 7.12372H8.30169L10.5428 4.30653C12.1393 2.30332 12.8442 1.43161 12.9948 1.28728C13.5731 0.721535 14.3925 0.300111 15.26 0.115377C15.8805 -0.0116274 15.2299 -8.14922e-05 23.0075 -8.14922e-05C28.767 -8.14922e-05 30.0864 -8.14921e-05 30.2852 0.0287832C30.5804 0.0634208 31.0985 0.167333 31.3274 0.242382C31.6166 0.334749 32.0925 0.55412 32.3335 0.69267C32.6227 0.865858 33.0143 1.1776 33.2492 1.42583C33.3517 1.53552 34.418 2.85752 35.6229 4.37003L37.8158 7.12372H39.3461C40.4907 7.12372 40.9426 7.12949 41.1534 7.15258C42.3463 7.27381 43.4849 7.7241 44.3705 8.4284C44.8766 8.8325 45.232 9.24238 45.5393 9.76772C45.8043 10.2238 45.955 10.6048 46.0634 11.1186C46.0995 11.2975 46.1056 12.0423 46.1116 21.4348C46.1116 28.6972 46.1116 31.624 46.0935 31.7684C45.9791 32.6458 45.5513 33.5176 44.8886 34.2219C44.6778 34.447 44.1476 34.88 43.8644 35.0532C43.2258 35.4515 42.4668 35.7459 41.7257 35.8845C41.0811 36.0057 42.5692 35.9941 23.0316 35.9941C8.28964 35.9941 5.07857 35.9884 4.89783 35.9653V35.9711ZM23.4714 29.7363C25.4896 29.6439 27.3693 28.8877 28.8694 27.5483C31.3033 25.3893 32.201 22.0179 31.1587 19.0044C30.9961 18.5253 30.8455 18.1962 30.6225 17.7748C29.5924 15.8639 27.7729 14.4034 25.6162 13.751C25.08 13.5894 24.4293 13.4624 23.8751 13.4104C23.5257 13.3758 22.5798 13.3758 22.2304 13.4104C20.2363 13.5952 18.3928 14.438 16.971 15.8177C16.0432 16.7126 15.3685 17.7748 14.9407 19.0102C14.3744 20.6381 14.3684 22.3989 14.9106 24.0442C15.1696 24.8293 15.6034 25.6606 16.0974 26.3187C17.1999 27.7966 18.7964 28.8934 20.5736 29.4015C21.2303 29.592 21.9231 29.7074 22.5497 29.7363C22.7545 29.7478 22.9413 29.7536 22.9654 29.7536C22.9895 29.7536 23.2124 29.7478 23.4654 29.7363H23.4714ZM22.7003 27.2886C21.4894 27.2193 20.2905 26.7805 19.3386 26.0589C19.0675 25.8569 18.5976 25.4008 18.3807 25.1353C16.7601 23.1725 16.6396 20.4881 18.0795 18.3925C18.2964 18.0807 18.5133 17.8267 18.8566 17.5034C19.6338 16.7645 20.5074 16.2854 21.5617 16.0256C22.7063 15.7427 23.851 15.7831 24.9896 16.1468C25.8692 16.4297 26.5861 16.8569 27.2729 17.5092C27.9477 18.15 28.3874 18.8254 28.7007 19.6683C29.3815 21.5272 29.02 23.5708 27.7368 25.1353C27.5139 25.4066 26.9958 25.8973 26.7247 26.0936C25.8571 26.7228 24.9113 27.1038 23.8389 27.2482C23.604 27.2828 22.9473 27.3001 22.7063 27.2886H22.7003Z" fill="#9D9D9C"/>
</svg>
