<svg width="47" height="36" viewBox="0 0 47 36" fill="none" xmlns="http://www.w3.org/2000/svg">
<path d="M42.1141 0H5.78018C3.08119 0 0.894287 2.06094 0.894287 4.59525V31.4047C0.894287 33.9448 3.08119 36 5.78018 36H42.1141C44.8131 36 47 33.9391 47 31.399V4.60103C47 2.06094 44.8131 0 42.1141 0ZM35.3124 5.59397C38.6018 5.59397 41.2707 8.13983 41.2887 11.2919C41.2887 11.3034 41.2887 11.3149 41.2887 11.3207C41.2887 14.4843 38.6138 17.0475 35.3124 17.0475C32.011 17.0475 29.3361 14.4843 29.3361 11.3207C29.3361 8.15715 32.011 5.59397 35.3124 5.59397ZM40.3368 30.4291H7.55139C6.32238 30.4291 5.65969 29.0783 6.45493 28.195L15.9797 17.6421C16.552 17.0071 17.6003 17.0071 18.1726 17.6421L25.9864 26.2957C26.5286 26.8961 27.5046 26.9365 28.101 26.3765L33.5352 21.2617C34.1436 20.6902 35.1437 20.7421 35.6799 21.3772L41.4634 28.2296C42.2105 29.1187 41.5418 30.4291 40.3368 30.4291Z" fill="#9D9D9C"/>
</svg>
