<svg xmlns="http://www.w3.org/2000/svg" width="119" height="119" fill="none">
  <g clip-path="url(#a)">
    <path fill="#fff" fill-rule="evenodd" d="M60.092 15.023c25.934 0 46.947 20.182 46.947 45.069 0 24.886-21.025 45.068-46.947 45.068-25.922 0-46.947-20.182-46.947-45.068 0-24.887 21.025-45.07 46.947-45.07Z" clip-rule="evenodd"/>
    <path fill="#00A0E4" d="M59.51 0a59.51 59.51 0 0 0-42.083 17.427A59.51 59.51 0 0 0 0 59.508a59.542 59.542 0 0 0 17.427 42.083 59.51 59.51 0 0 0 42.082 17.427 59.54 59.54 0 0 0 42.083-17.427 59.508 59.508 0 0 0 17.427-42.083c0-15.774-6.291-30.91-17.446-42.064C90.419 6.291 75.283 0 59.509 0Zm-8.808 85.593-28.75-26.29 8.056-8.807 20.319 18.61 38.177-38.178 8.45 8.45L50.72 85.613l-.019-.02Z"/>
  </g>
  <defs>
    <clipPath id="a">
      <path fill="#fff" d="M0 0h119v119H0z"/>
    </clipPath>
  </defs>
</svg>
